<svg xmlns="http://www.w3.org/2000/svg" version="1.1" xmlns:xlink="http://www.w3.org/1999/xlink" xmlns:svgjs="http://svgjs.dev/svgjs" width="1920" height="1080" preserveAspectRatio="none" viewBox="0 0 1920 1080"><g mask="url(&quot;#SvgjsMask1407&quot;)" fill="none"><rect width="1920" height="1080" x="0" y="0" fill="rgba(248, 248, 255, 1)"></rect><g transform="translate(0, 0)" stroke-linecap="round"><path d="M232 330.03 L232 477.03" stroke-width="21" stroke="rgba(30, 30, 30, 1)"></path><path d="M232 508.53 L232 749.97" stroke-width="21" stroke="rgba(30, 30, 30, 1)"></path><path d="M260 242.44 L260 837.56" stroke-width="21" stroke="rgba(30, 30, 30, 1)"></path><path d="M288 489.02 L288 510.02" stroke-width="21" stroke="#dd1133"></path><path d="M288 541.52 L288 590.98" stroke-width="21" stroke="#dd1133"></path><path d="M316 192.96 L316 276.96000000000004" stroke-width="21" stroke="rgba(30, 30, 30, 1)"></path><path d="M316 308.46000000000004 L316 476.46000000000004" stroke-width="21" stroke="#dd1133"></path><path d="M316 507.96000000000004 L316 887.04" stroke-width="21" stroke="rgba(30, 30, 30, 1)"></path><path d="M344 246.88 L344 435.88" stroke-width="21" stroke="rgba(30, 30, 30, 1)"></path><path d="M344 467.38 L344 656.38" stroke-width="21" stroke="rgba(30, 30, 30, 1)"></path><path d="M344 687.88 L344 833.13" stroke-width="21" stroke="rgba(30, 30, 30, 1)"></path><path d="M372 321.81 L372 363.81" stroke-width="21" stroke="#dd1133"></path><path d="M372 395.31 L372 437.31" stroke-width="21" stroke="#dd1133"></path><path d="M372 468.81 L372 758.18" stroke-width="21" stroke="#dd1133"></path><path d="M400 189.64 L400 890.36" stroke-width="21" stroke="rgba(30, 30, 30, 1)"></path><path d="M428 243.33 L428 306.33000000000004" stroke-width="21" stroke="rgba(30, 30, 30, 1)"></path><path d="M428 337.83000000000004 L428 836.66" stroke-width="21" stroke="rgba(30, 30, 30, 1)"></path><path d="M456 454.62 L456 496.62" stroke-width="21" stroke="rgba(30, 30, 30, 1)"></path><path d="M456 528.12 L456 570.12" stroke-width="21" stroke="rgba(30, 30, 30, 1)"></path><path d="M456 601.62 L456 625.38" stroke-width="21" stroke="#dd1133"></path><path d="M484 405.32 L484 573.3199999999999" stroke-width="21" stroke="#dd1133"></path><path d="M484 604.8199999999999 L484 674.68" stroke-width="21" stroke="rgba(30, 30, 30, 1)"></path><path d="M512 183.25 L512 477.25" stroke-width="21" stroke="#dd1133"></path><path d="M512 508.75 L512 760.75" stroke-width="21" stroke="rgba(30, 30, 30, 1)"></path><path d="M512 792.25 L512 896.75" stroke-width="21" stroke="rgba(30, 30, 30, 1)"></path><path d="M540 288.76 L540 791.24" stroke-width="21" stroke="#dd1133"></path><path d="M568 293.74 L568 503.74" stroke-width="21" stroke="rgba(30, 30, 30, 1)"></path><path d="M568 535.24 L568 577.24" stroke-width="21" stroke="rgba(30, 30, 30, 1)"></path><path d="M568 608.74 L568 786.26" stroke-width="21" stroke="rgba(30, 30, 30, 1)"></path><path d="M596 173.06 L596 257.06" stroke-width="21" stroke="#dd1133"></path><path d="M596 288.56 L596 813.56" stroke-width="21" stroke="#dd1133"></path><path d="M596 845.06 L596 906.94" stroke-width="21" stroke="rgba(30, 30, 30, 1)"></path><path d="M624 448.61 L624 490.61" stroke-width="21" stroke="#dd1133"></path><path d="M624 522.11 L624 543.11" stroke-width="21" stroke="rgba(30, 30, 30, 1)"></path><path d="M624 574.61 L624 631.39" stroke-width="21" stroke="#dd1133"></path><path d="M652 257.44 L652 467.44" stroke-width="21" stroke="#dd1133"></path><path d="M652 498.94 L652 822.56" stroke-width="21" stroke="rgba(30, 30, 30, 1)"></path><path d="M680 166.65 L680 586.65" stroke-width="21" stroke="rgba(30, 30, 30, 1)"></path><path d="M680 618.15 L680 723.15" stroke-width="21" stroke="rgba(30, 30, 30, 1)"></path><path d="M680 754.65 L680 913.35" stroke-width="21" stroke="rgba(30, 30, 30, 1)"></path><path d="M708 295.38 L708 784.62" stroke-width="21" stroke="rgba(30, 30, 30, 1)"></path><path d="M736 239.88 L736 302.88" stroke-width="21" stroke="#dd1133"></path><path d="M736 334.38 L736 481.38" stroke-width="21" stroke="rgba(30, 30, 30, 1)"></path><path d="M736 512.88 L736 840.12" stroke-width="21" stroke="rgba(30, 30, 30, 1)"></path><path d="M764 193.43 L764 718.4300000000001" stroke-width="21" stroke="rgba(30, 30, 30, 1)"></path><path d="M764 749.9300000000001 L764 812.9300000000001" stroke-width="21" stroke="rgba(30, 30, 30, 1)"></path><path d="M764 844.4300000000001 L764 886.57" stroke-width="21" stroke="#dd1133"></path><path d="M792 145.95 L792 628.95" stroke-width="21" stroke="#dd1133"></path><path d="M792 660.45 L792 934.05" stroke-width="21" stroke="rgba(30, 30, 30, 1)"></path><path d="M820 455.72 L820 518.72" stroke-width="21" stroke="rgba(30, 30, 30, 1)"></path><path d="M820 550.22 L820 624.28" stroke-width="21" stroke="#dd1133"></path><path d="M848 454.37 L848 475.37" stroke-width="21" stroke="rgba(30, 30, 30, 1)"></path><path d="M848 506.87 L848 548.87" stroke-width="21" stroke="#dd1133"></path><path d="M848 580.37 L848 625.63" stroke-width="21" stroke="#dd1133"></path><path d="M876 156.23 L876 198.23" stroke-width="21" stroke="#dd1133"></path><path d="M876 229.73 L876 334.73" stroke-width="21" stroke="#dd1133"></path><path d="M876 366.23 L876 923.77" stroke-width="21" stroke="#dd1133"></path><path d="M904 280.82 L904 553.8199999999999" stroke-width="21" stroke="rgba(30, 30, 30, 1)"></path><path d="M904 585.3199999999999 L904 799.17" stroke-width="21" stroke="rgba(30, 30, 30, 1)"></path><path d="M932 196.03 L932 679.03" stroke-width="21" stroke="rgba(30, 30, 30, 1)"></path><path d="M932 710.53 L932 883.97" stroke-width="21" stroke="rgba(30, 30, 30, 1)"></path><path d="M960 387.29 L960 576.29" stroke-width="21" stroke="#dd1133"></path><path d="M960 607.79 L960 628.79" stroke-width="21" stroke="#dd1133"></path><path d="M960 660.29 L960 692.71" stroke-width="21" stroke="rgba(30, 30, 30, 1)"></path><path d="M988 429.6 L988 650.4" stroke-width="21" stroke="#dd1133"></path><path d="M1016 178.16 L1016 577.16" stroke-width="21" stroke="#dd1133"></path><path d="M1016 608.66 L1016 797.66" stroke-width="21" stroke="#dd1133"></path><path d="M1016 829.16 L1016 901.84" stroke-width="21" stroke="#dd1133"></path><path d="M1044 192.39 L1044 887.61" stroke-width="21" stroke="rgba(30, 30, 30, 1)"></path><path d="M1072 299.44 L1072 467.44" stroke-width="21" stroke="#dd1133"></path><path d="M1072 498.94 L1072 687.94" stroke-width="21" stroke="rgba(30, 30, 30, 1)"></path><path d="M1072 719.44 L1072 780.56" stroke-width="21" stroke="rgba(30, 30, 30, 1)"></path><path d="M1100 136.01 L1100 346.01" stroke-width="21" stroke="rgba(30, 30, 30, 1)"></path><path d="M1100 377.51 L1100 629.51" stroke-width="21" stroke="rgba(30, 30, 30, 1)"></path><path d="M1100 661.01 L1100 943.99" stroke-width="21" stroke="#dd1133"></path><path d="M1128 269.87 L1128 810.13" stroke-width="21" stroke="rgba(30, 30, 30, 1)"></path><path d="M1156 505.28 L1156 574.72" stroke-width="21" stroke="rgba(30, 30, 30, 1)"></path><path d="M1184 212.99 L1184 506.99" stroke-width="21" stroke="rgba(30, 30, 30, 1)"></path><path d="M1184 538.49 L1184 706.49" stroke-width="21" stroke="rgba(30, 30, 30, 1)"></path><path d="M1184 737.99 L1184 867.01" stroke-width="21" stroke="#dd1133"></path><path d="M1212 304.15 L1212 661.15" stroke-width="21" stroke="rgba(30, 30, 30, 1)"></path><path d="M1212 692.65 L1212 775.85" stroke-width="21" stroke="#dd1133"></path><path d="M1240 346.69 L1240 472.69" stroke-width="21" stroke="#dd1133"></path><path d="M1240 504.19 L1240 609.19" stroke-width="21" stroke="#dd1133"></path><path d="M1240 640.69 L1240 733.31" stroke-width="21" stroke="rgba(30, 30, 30, 1)"></path><path d="M1268 267.44 L1268 561.44" stroke-width="21" stroke="rgba(30, 30, 30, 1)"></path><path d="M1268 592.94 L1268 697.94" stroke-width="21" stroke="rgba(30, 30, 30, 1)"></path><path d="M1268 729.44 L1268 812.56" stroke-width="21" stroke="rgba(30, 30, 30, 1)"></path><path d="M1296 406.04 L1296 448.04" stroke-width="21" stroke="#dd1133"></path><path d="M1296 479.54 L1296 673.96" stroke-width="21" stroke="#dd1133"></path><path d="M1324 404.76 L1324 572.76" stroke-width="21" stroke="#dd1133"></path><path d="M1324 604.26 L1324 675.24" stroke-width="21" stroke="rgba(30, 30, 30, 1)"></path><path d="M1352 244.39 L1352 265.39" stroke-width="21" stroke="rgba(30, 30, 30, 1)"></path><path d="M1352 296.89 L1352 835.61" stroke-width="21" stroke="#dd1133"></path><path d="M1380 271.26 L1380 808.74" stroke-width="21" stroke="#dd1133"></path><path d="M1408 182.97 L1408 266.97" stroke-width="21" stroke="#dd1133"></path><path d="M1408 298.47 L1408 897.03" stroke-width="21" stroke="#dd1133"></path><path d="M1436 191.14 L1436 359.14" stroke-width="21" stroke="#dd1133"></path><path d="M1436 390.64 L1436 888.86" stroke-width="21" stroke="rgba(30, 30, 30, 1)"></path><path d="M1464 368.15 L1464 599.15" stroke-width="21" stroke="#dd1133"></path><path d="M1464 630.65 L1464 711.85" stroke-width="21" stroke="rgba(30, 30, 30, 1)"></path><path d="M1492 332.62 L1492 747.38" stroke-width="21" stroke="rgba(30, 30, 30, 1)"></path><path d="M1520 187.88 L1520 481.88" stroke-width="21" stroke="rgba(30, 30, 30, 1)"></path><path d="M1520 513.38 L1520 892.13" stroke-width="21" stroke="#dd1133"></path><path d="M1548 212.71 L1548 737.71" stroke-width="21" stroke="#dd1133"></path><path d="M1548 769.21 L1548 790.21" stroke-width="21" stroke="#dd1133"></path><path d="M1548 821.71 L1548 867.29" stroke-width="21" stroke="#dd1133"></path><path d="M1576 294.23 L1576 357.23" stroke-width="21" stroke="#dd1133"></path><path d="M1576 388.73 L1576 493.73" stroke-width="21" stroke="#dd1133"></path><path d="M1576 525.23 L1576 785.77" stroke-width="21" stroke="#dd1133"></path><path d="M1604 279.98 L1604 800.02" stroke-width="21" stroke="rgba(30, 30, 30, 1)"></path><path d="M1632 439.24 L1632 502.24" stroke-width="21" stroke="#dd1133"></path><path d="M1632 533.74 L1632 554.74" stroke-width="21" stroke="rgba(30, 30, 30, 1)"></path><path d="M1632 586.24 L1632 640.76" stroke-width="21" stroke="#dd1133"></path><path d="M1660 342.69 L1660 405.69" stroke-width="21" stroke="rgba(30, 30, 30, 1)"></path><path d="M1660 437.19 L1660 737.32" stroke-width="21" stroke="rgba(30, 30, 30, 1)"></path><path d="M1688 500.31 L1688 579.68" stroke-width="21" stroke="#dd1133"></path></g></g><defs><mask id="SvgjsMask1407"><rect width="1920" height="1080" fill="#ffffff"></rect></mask></defs></svg>